# File created by Blade
# Date/Time:  Tue Jan 27 18:01:49 2015
# Frame Rate: 120.000 fps
#------------------------------------------------------
:FULLY-SPECIFIED
:DEGREES
2674
root -1.778661 31.976711 -6.381141 6.503670 18.608197 3.872544
Spine -5.135627 -15.643437 -4.900031
Head 8.085223 -44.102786 -11.366866
LeftShoulder -12.027471 15.623297 6.812244
LeftArm 21.548077 40.674270 -73.117744
LeftForeArm -3.592629 -0.000000 12.782493
LeftHand -11.293114 -0.000000 -5.950211
LeftHandThumb1 -26.253704 0.000000 33.147579
RightShoulder -16.092704 24.190942 -49.546929
RightArm 117.393790 75.623844 135.956985
RightForeArm 42.207344 -0.000000 134.397246
RightHand 4.099471 -0.000000 20.564371
RightHandThumb1 -24.326973 -0.000000 -32.862282
LeftUpLeg -2.615045 -6.183550 0.265925
LeftLeg -0.253160 -0.000000 0.000000
LeftFoot -12.774270 11.990759 -24.235593
LeftToeBase 8.709059 -0.000000 -0.000000
RightUpLeg 2.813147 -10.192644 -2.435793
RightLeg -3.263614 -0.000000 0.000000
RightFoot -16.415751 -19.046594 11.497253
RightToeBase 5.387855 -0.000000 -0.000000
2675
root -1.776393 31.976124 -6.381826 6.529725 18.661241 3.901088
Spine -5.112381 -15.675504 -4.935946
Head 7.803523 -44.564466 -11.179042
LeftShoulder -12.044109 15.629008 6.821791
LeftArm 21.569157 40.671898 -73.104077
LeftForeArm -3.582879 -0.000000 12.806514
LeftHand -11.288781 -0.000000 -5.929347
LeftHandThumb1 -26.253704 0.000000 33.147579
RightShoulder -16.450379 26.008781 -50.441153
RightArm 108.578050 77.276066 127.621704
RightForeArm 41.975347 -0.000000 132.140942
RightHand 3.706594 -0.000000 20.383777
RightHandThumb1 -24.326973 -0.000000 -32.862282
LeftUpLeg -2.636956 -6.268140 0.250396
LeftLeg -0.250455 -0.000000 0.000000
LeftFoot -12.774139 11.987898 -24.260121
LeftToeBase 8.709745 -0.000000 -0.000000
RightUpLeg 2.802579 -10.219141 -2.459629
RightLeg -3.258209 -0.000000 0.000000
RightFoot -16.447222 -19.059363 11.512850
RightToeBase 5.394521 -0.000000 -0.000000
2676
root -1.777515 31.974067 -6.380881 6.539394 18.713382 3.885851
Spine -5.085563 -15.720567 -4.925626
Head 7.508367 -44.985053 -10.985383
LeftShoulder -12.067700 15.630781 6.837005
LeftArm 21.555111 40.641897 -73.131128
LeftForeArm -3.545337 -0.000000 12.834977
LeftHand -11.314861 0.000000 -5.894121
LeftHandThumb1 -26.253704 0.000000 33.147579
RightShoulder -16.521871 26.239518 -50.664660
RightArm 104.913768 77.684994 123.986471
RightForeArm 41.713947 -0.000000 129.745461
RightHand 3.024015 -0.000000 19.887032
RightHandThumb1 -24.326973 -0.000000 -32.862282
LeftUpLeg -2.680736 -6.210163 0.268970
LeftLeg -0.197170 -0.000000 0.000000
LeftFoot -12.777006 11.884046 -24.228163
LeftToeBase 8.744264 -0.000000 -0.000000
RightUpLeg 2.797264 -10.246658 -2.434018
RightLeg -3.259559 -0.000000 0.000000
RightFoot -16.464420 -19.089452 11.521611
RightToeBase 5.373478 -0.000000 -0.000000
2677
root -1.776120 31.972991 -6.379469 6.561124 18.748072 3.887296
Spine -5.067131 -15.730896 -4.937365
Head 7.168924 -45.461494 -10.736619
LeftShoulder -12.077159 15.643828 6.865007
LeftArm 21.567401 40.632835 -73.153876
LeftForeArm -3.546982 0.000000 12.844129
LeftHand -11.402617 -0.000000 -6.036812
LeftHandThumb1 -26.253704 0.000000 33.147579
RightShoulder -16.564055 26.130604 -50.745759
RightArm 102.369953 77.796705 121.337432
RightForeArm 41.074461 -0.000000 127.227379
RightHand 2.655503 -0.000000 19.305061
RightHandThumb1 -24.326973 -0.000000 -32.862282
LeftUpLeg -2.708426 -6.220688 0.269447
LeftLeg -0.185209 -0.000000 0.000000
LeftFoot -12.765796 11.873245 -24.179433
LeftToeBase 8.658274 -0.000000 -0.000000
RightUpLeg 2.782405 -10.251254 -2.431835
RightLeg -3.254132 -0.000000 0.000000
RightFoot -16.482175 -19.111185 11.533198
RightToeBase 5.374371 -0.000000 -0.000000
2678
root -1.774618 31.972841 -6.377984 6.582597 18.773581 3.890921
Spine -5.060013 -15.768942 -4.941151
Head 6.881004 -45.842024 -10.501878
LeftShoulder -12.095607 15.636548 6.877068
LeftArm 21.545523 40.651938 -73.173556
LeftForeArm -3.584926 0.000000 12.834908
LeftHand -11.404797 -0.000000 -6.032404
LeftHandThumb1 -26.253704 0.000000 33.147579
RightShoulder -16.594690 26.082808 -50.855237
RightArm 99.751889 77.901186 118.649168
RightForeArm 40.293893 0.000000 124.689292
RightHand 2.179661 -0.000000 18.673022
RightHandThumb1 -24.326973 -0.000000 -32.862282
LeftUpLeg -2.734345 -6.214550 0.268647
LeftLeg -0.176510 -0.000000 0.000000
LeftFoot -12.763265 11.839354 -24.186788
LeftToeBase 8.730760 -0.000000 -0.000000
RightUpLeg 2.769083 -10.240564 -2.427812
RightLeg -3.258485 -0.000000 0.000000
RightFoot -16.489471 -19.157315 11.547314
RightToeBase 5.333844 -0.000000 -0.000000
2679
root -1.772457 31.972345 -6.376087 6.601643 18.795534 3.898166
Spine -5.051736 -15.815886 -4.958795
Head 6.614279 -46.236693 -10.351914
LeftShoulder -12.113000 15.648096 6.902978
LeftArm 21.512120 40.614086 -73.232972
LeftForeArm -3.556404 -0.000000 12.818428
LeftHand -11.441051 -0.000000 -6.109560
LeftHandThumb1 -26.253704 0.000000 33.147579
RightShoulder -16.635233 26.094707 -50.975278
RightArm 97.068459 77.959791 115.880419
RightForeArm 39.421486 0.000000 122.051468
RightHand 1.797756 -0.000000 17.957806
RightHandThumb1 -24.326973 -0.000000 -32.862282
LeftUpLeg -2.754664 -6.203959 0.260363
LeftLeg -0.162990 -0.000000 0.000000
LeftFoot -12.756710 11.816511 -24.164096
LeftToeBase 8.660336 -0.000000 -0.000000
RightUpLeg 2.752940 -10.261157 -2.434700
RightLeg -3.239716 -0.000000 0.000000
RightFoot -16.516295 -19.149240 11.558311
RightToeBase 5.443145 -0.000000 -0.000000
2680
root -1.770231 31.970027 -6.373997 6.613089 18.805541 3.893533
Spine -5.029547 -15.856994 -4.950491
Head 6.245879 -46.437817 -10.008492
LeftShoulder -12.152507 15.627779 6.923891
LeftArm 21.474196 40.645832 -73.279767
LeftForeArm -3.576805 0.000000 12.805428
LeftHand -11.455239 -0.000000 -6.148510
LeftHandThumb1 -26.253704 0.000000 33.147579
RightShoulder -16.720682 26.064950 -51.149137
RightArm 94.595713 77.943718 113.320728
RightForeArm 38.679532 -0.000000 119.326213
RightHand 1.433501 0.000000 17.299683
RightHandThumb1 -24.326973 -0.000000 -32.862282
LeftUpLeg -2.742784 -6.299293 0.276142
LeftLeg -0.206720 -0.000000 0.000000
LeftFoot -12.792032 11.850578 -24.222054
LeftToeBase 8.672116 -0.000000 -0.000000
RightUpLeg 2.748561 -10.211719 -2.428234
RightLeg -3.245367 -0.000000 0.000000
RightFoot -16.532738 -19.217073 11.549908
RightToeBase 5.359784 -0.000000 -0.000000
2681
root -1.767798 31.969820 -6.371830 6.622923 18.805214 3.900177
Spine -5.011768 -15.898196 -4.962488
Head 5.954029 -46.612633 -9.720375
LeftShoulder -12.175118 15.610591 6.945330
LeftArm 21.424297 40.670519 -73.324980
LeftForeArm -3.615077 0.000000 12.789714
LeftHand -11.486619 -0.000000 -6.183201
LeftHandThumb1 -26.253704 0.000000 33.147579
RightShoulder -16.801636 26.042390 -51.303372
RightArm 92.515760 77.860511 111.134491
RightForeArm 37.893606 -0.000000 116.520970
RightHand 1.048467 -0.000000 17.169872
RightHandThumb1 -24.326973 -0.000000 -32.862282
LeftUpLeg -2.767830 -6.178858 0.253658
LeftLeg -0.158441 -0.000000 0.000000
LeftFoot -12.768237 11.777012 -24.132172
LeftToeBase 8.651224 -0.000000 -0.000000
RightUpLeg 2.740021 -10.210054 -2.436125
RightLeg -3.233490 -0.000000 0.000000
RightFoot -16.547906 -19.222830 11.564946
RightToeBase 5.308700 -0.000000 -0.000000
2682
root -1.765581 31.968367 -6.367478 6.622302 18.792583 3.899366
Spine -5.000982 -15.943756 -4.977807
Head 5.689510 -46.840305 -9.456679
LeftShoulder -12.205367 15.641908 6.980577
LeftArm 21.411024 40.655044 -73.382298
LeftForeArm -3.637015 0.000000 12.738858
LeftHand -11.448564 -0.000000 -6.197612
LeftHandThumb1 -26.253704 0.000000 33.147579
RightShoulder -16.847969 26.023995 -51.430600
RightArm 90.745746 77.754667 109.191936
RightForeArm 37.265931 -0.000000 113.567319
RightHand 0.656315 -0.000000 17.179268
RightHandThumb1 -24.326973 -0.000000 -32.862282
LeftUpLeg -2.759164 -6.138673 0.249622
LeftLeg -0.152867 -0.000000 0.000000
LeftFoot -12.781188 11.743574 -24.129293
LeftToeBase 8.699616 -0.000000 -0.000000
RightUpLeg 2.744036 -10.189471 -2.438832
RightLeg -3.225988 -0.000000 0.000000
RightFoot -16.569362 -19.216521 11.573579
RightToeBase 5.355574 -0.000000 -0.000000
2683
root -1.763895 31.967630 -6.364982 6.632174 18.784961 3.900013
Spine -5.001227 -15.998406 -4.991362
Head 5.440018 -47.046969 -9.171764
LeftShoulder -12.216747 15.642228 7.018476
LeftArm 21.341210 40.653624 -73.461235
LeftForeArm -3.675877 -0.000000 12.727819
LeftHand -11.497320 -0.000000 -6.155348
LeftHandThumb1 -26.253704 0.000000 33.147579
RightShoulder -16.883704 25.992434 -51.551520
RightArm 89.009618 77.621270 107.251314
RightForeArm 36.683087 0.000000 110.648534
RightHand -0.016723 -0.000000 16.813342
RightHandThumb1 -24.326973 -0.000000 -32.862282
LeftUpLeg -2.752832 -6.136903 0.246136
LeftLeg -0.174246 -0.000000 0.000000
LeftFoot -12.773211 11.764597 -24.095944
LeftToeBase 8.637464 -0.000000 -0.000000
RightUpLeg 2.739009 -10.157374 -2.441044
RightLeg -3.225532 -0.000000 0.000000
RightFoot -16.585247 -19.235143 11.587027
RightToeBase 5.328398 -0.000000 -0.000000
